<?xml version="1.0" encoding="utf-8"?>
<!-- Generator: Adobe Illustrator 23.0.3, SVG Export Plug-In . SVG Version: 6.00 Build 0)  -->
<svg version="1.1" id="Layer_1" xmlns="http://www.w3.org/2000/svg" xmlns:xlink="http://www.w3.org/1999/xlink" x="0px" y="0px"
	 viewBox="0 0 1002 293" style="enable-background:new 0 0 1002 293;" xml:space="preserve">
<style type="text/css">
	.st0{fill:#FFFFFF;}
	.st1{fill:#CCCCCC;}
</style>
<g>
	<g>
		<path class="st0" d="M402.4,87.29v117.44h-15.16V87.29H402.4z"/>
		<path class="st0" d="M451.19,100.19h-35.72V87.29h86.95v12.89h-35.9v104.55h-15.33V100.19z"/>
		<path class="st0" d="M541.62,204.74l-29.8-117.44h16.03l13.94,59.42c3.49,14.64,6.62,29.27,8.71,40.6h0.35
			c1.92-11.67,5.58-25.61,9.59-40.77l15.68-59.25h15.86l14.29,59.59c3.31,13.94,6.45,27.88,8.19,40.25h0.35
			c2.44-12.89,5.75-25.96,9.41-40.6l15.51-59.25h15.51l-33.28,117.44h-15.86l-14.81-61.16c-3.66-14.98-6.1-26.48-7.67-38.33h-0.35
			c-2.09,11.67-4.71,23.18-9.06,38.33l-16.73,61.16H541.62z"/>
		<path class="st0" d="M770.23,144.8c0,40.42-24.57,61.86-54.54,61.86c-31.01,0-52.8-24.04-52.8-59.59
			c0-37.29,23.18-61.68,54.54-61.68C749.49,85.38,770.23,109.95,770.23,144.8z M679.09,146.71c0,25.09,13.59,47.57,37.46,47.57
			c24.05,0,37.64-22.13,37.64-48.79c0-23.35-12.2-47.74-37.46-47.74C691.64,97.75,679.09,120.92,679.09,146.71z"/>
		<path class="st0" d="M789.91,88.86c7.67-1.57,18.64-2.44,29.1-2.44c16.2,0,26.66,2.96,33.98,9.58c5.92,5.23,9.24,13.24,9.24,22.3
			c0,15.51-9.76,25.79-22.13,29.97v0.52c9.06,3.14,14.46,11.5,17.25,23.7c3.83,16.38,6.62,27.71,9.06,32.24h-15.68
			c-1.92-3.31-4.53-13.42-7.84-28.05c-3.48-16.2-9.76-22.3-23.52-22.83h-14.29v50.88h-15.16V88.86z M805.07,142.36h15.51
			c16.21,0,26.49-8.89,26.49-22.3c0-15.16-10.98-21.78-27.01-21.95c-7.32,0-12.55,0.7-14.98,1.39V142.36z"/>
		<path class="st0" d="M948.81,204.74l-14.99-25.96c-6.1-9.93-9.93-16.38-13.59-23.18h-0.35c-3.31,6.79-6.62,13.07-12.72,23.35
			l-14.11,25.79h-17.42l35.89-59.42l-34.5-58.02h17.6l15.51,27.53c4.36,7.67,7.67,13.59,10.8,19.86h0.52
			c3.31-6.97,6.28-12.37,10.63-19.86l16.03-27.53h17.42l-35.72,57.15l36.59,60.29H948.81z"/>
	</g>
	<path class="st0" d="M990,58.01c-0.19,0.26-0.53,0.46-0.97,0.5c-0.4,0.09-1.25,0.09-2.41,0.09v-3.78h1.07c1.73,0,2.6,0.63,2.6,1.83
		C990.29,57.26,990.19,57.72,990,58.01 M993.4,56.54c0-2.99-1.87-4.5-5.71-4.5h-4.23v15.46h3.16v-6.22h1.26l3.65,6.22h3.48
		l-4.16-6.82C992.58,59.78,993.4,58.42,993.4,56.54 M995.69,67.2c-2.02,2.02-4.41,3.02-7.26,3.02c-2.87,0-5.25-1-7.26-3.02
		c-2.02-2.01-3.08-4.45-3.08-7.26c0-2.82,1.01-5.26,3.01-7.27c2.04-1.98,4.46-2.99,7.33-2.99c2.85,0,5.24,1.01,7.26,2.99
		c2,2.01,3.03,4.44,3.03,7.27C998.72,62.8,997.69,65.19,995.69,67.2 M998.05,50.35c-2.67-2.59-5.89-3.94-9.62-3.94
		c-3.74,0-6.99,1.35-9.64,3.94c-2.65,2.67-3.98,5.86-3.98,9.6c0,3.73,1.32,6.93,3.98,9.57c2.65,2.66,5.89,3.94,9.64,3.94
		c3.73,0,6.95-1.28,9.62-3.94c2.62-2.64,3.95-5.84,3.95-9.57C1002,56.21,1000.67,53.02,998.05,50.35"/>
	<g>
		<path class="st0" d="M258.5,62.2l-1.74-1.84C221.41,23.4,167.93,2.15,122.09,2.13h-0.08C40.61,2.15,0.48,76.7,0.48,152.91
			c0,12.47,0.83,24.26,2.47,35.3l0.44,2.81c0,0,0,0-0.01,0c0.02,0.14,0.05,0.27,0.07,0.41l0.04,0.28l0,0
			C14.06,255.27,52.34,293.2,116.41,293.2c9.22,0,18.83-0.73,28.6-2.17l0,0l0.14-0.02c0.03,0,0.06-0.01,0.09-0.01c0,0,0,0,0,0
			l2.64-0.4c70.26-11.33,147.72-59.17,147.76-137.62v-0.09C295.63,117.12,280.93,86.4,258.5,62.2z M184.94,221.73
			c-6.08-0.99-15.25-4.06-15.25-4.06c-60.58-23.83-101.12-61.31-107.33-67.26l-10.19-10.89C85.63,111.6,134.37,79.6,193.05,66.4
			c1.08,3.91,2.87,14.98,2.87,14.98C202.99,141.67,195.76,188.09,184.94,221.73z"/>
		<path class="st1" d="M2.9,187.94l0.44,2.82c0,0,50.31-35.69,58.86-40.54l-10.02-10.7C52.18,139.52,16.78,169.06,2.9,187.94z"/>
		<path class="st1" d="M195.89,81.13l-2.83-14.74c0,0,26.75-7.36,63.5-6.25l1.76,1.86C258.31,62,228.87,67.63,195.89,81.13z"/>
		<path class="st1" d="M169.56,217.61l15.38,4.12c0,0-9.08,36.45-37.24,68.89l-2.7,0.41C145.01,291.03,154.61,267.53,169.56,217.61z
			"/>
	</g>
</g>
</svg>
